<?xml version="1.0" encoding="UTF-8" standalone="no"?>
<!DOCTYPE svg PUBLIC "-//W3C//DTD SVG 1.1//EN" "http://www.w3.org/Graphics/SVG/1.1/DTD/svg11.dtd">
<svg width="100%" height="100%" viewBox="0 0 800 600" version="1.1" xmlns="http://www.w3.org/2000/svg" xmlns:xlink="http://www.w3.org/1999/xlink" xml:space="preserve" xmlns:serif="http://www.serif.com/" style="fill-rule:evenodd;clip-rule:evenodd;stroke-linejoin:round;stroke-miterlimit:2;">
    <g transform="matrix(2.77621e-17,-0.185138,0.766298,5.45233e-17,6.21839e-14,320.765)">
        <rect x="0" y="0" width="1043.98" height="1043.98" style="fill:rgb(35,0,84);"/>
    </g>
    <g transform="matrix(1,0,0,1,-16.025,29.537)">
        <text x="189.233px" y="213.034px" style="font-family:'RussoOne-Regular', 'Russo One';font-size:43px;fill:white;">SchlagenKr<tspan x="435.666px " y="213.034px ">a</tspan>ft Incorpor<tspan x="700.331px 725.916px 744.406px " y="213.034px 213.034px 213.034px ">ate</tspan>d</text>
    </g>
    <g transform="matrix(0.143681,0,0,0.143681,13.1056,150)">
        <path d="M700.74,195.67C691.16,183.17 678.77,171.89 675.59,155.66C671.72,134.28 651.53,120.68 631.45,116.59C618.46,115.39 607.81,107.47 600.67,96.91C577.71,68.55 544.61,48.91 508.82,42C476.41,38.35 442.48,42.3 413.5,58.02C356.8,85.75 321.26,150.26 326.73,212.95C327.12,210.77 327.47,208.57 327.87,206.39C327.62,212.67 327.37,218.98 327.83,225.27C341.04,310.87 415.84,385.69 502.76,393.6C495.09,380.12 485.49,367.75 477.7,354.25C515.78,345.25 553.81,368.95 574.73,399.79C579.8,404.84 581.73,412.83 587.19,417.31C588.39,418.3 590.2,417.27 589.9,415.73C583.32,381.67 550.97,357.82 521.27,343.19C499.03,332.03 475.81,322.15 456.43,306.2C418.42,278.12 394.63,227.14 407.58,180.24C413.89,146.2 438.39,113.57 473.1,105.23C501.37,95.88 535.31,105.2 554.75,127.78C561.96,134.27 565.25,143.92 572.45,150.3C573.33,146.32 574.74,142.5 576.43,138.8C577.53,151.32 574.13,164.7 579.75,176.5C589.36,195.89 612.4,199.74 629.75,209.25C642.86,214.81 654.06,227.08 668.97,226.43C670.97,226.34 672.49,224.6 672.38,222.6L672.38,222.54C672.28,220.89 671.04,219.52 669.41,219.22C667.05,218.79 664.87,218.16 664.11,217.84C650.88,212.87 641.69,201.29 628.7,195.84C621.52,192.07 611.57,191.07 608,182.74C618.58,183.08 621.77,185.59 628.02,187.86C651.22,196.29 664.09,218.07 687.4,215.35C697.35,217.02 706.98,204.35 700.74,195.67ZM667.96,181.97L667.91,182.01C667.53,182.38 666.94,182.39 666.55,182.03L663.82,179.55C663.11,178.89 662.16,178.58 661.19,178.65C659.34,178.81 655.96,178.95 652.12,178.44C646.34,177.68 639.44,173.45 638.34,167.45C637.44,162.55 639.64,155.81 639.64,155.81C639.64,155.81 626.96,150.65 627.6,141.15C627.6,141.15 634.48,148.09 642.31,151.46C650.14,154.83 654.37,154 659.07,160.98C663.61,167.74 660.09,173.15 667.94,180.48C668.36,180.9 668.37,181.56 667.96,181.97ZM687.68,207.67L683.19,198.09L692.65,202.74L687.68,207.67Z" style="fill:rgb(255,254,255);fill-rule:nonzero;"/>
    </g>
    <g transform="matrix(0.143681,0,0,0.143681,13.1056,150)">
        <path d="M205.42,364.35C239.46,351.81 276.3,353.69 311.73,357.09C348.99,365.08 384.35,380.9 416.29,401.55C462.3,432.52 497.41,476.03 535.17,515.94C573.5,558.23 610.75,601.85 653.15,640.16C680.15,664.41 711.92,684.35 747.3,693.52C779.73,702.03 815.66,696.9 844.04,678.89C881.01,655.16 902.36,608.51 894.37,565.07C890.04,529.83 869.32,496.43 838.49,478.43C801.1,456.35 753.23,456.46 714.26,474.37C669.78,495.18 633.82,529.53 598.35,562.66C576.29,538.9 557.05,512.79 533.76,490.14C567.19,453.89 604.52,420.51 645.46,392.79C690.2,362.56 745.05,351.01 798.46,354.66C796.99,355.08 795.52,355.51 794.07,355.96C805.93,355.41 817.52,358.19 828.92,361.09C917.08,385.62 988.02,465.07 998.9,556.43C1006.67,620.37 986.33,688.34 941.53,735.32C897.33,787.39 825.7,809.16 759.06,804.92C700.03,798.35 646.8,766.71 603.13,727.88C539.67,664.85 480.11,598.12 416.74,534.99C385.74,504.4 348.8,478.31 306.53,466.29C267.71,456.11 222.79,459.9 191.04,486.3C161.41,511.35 144.6,550.85 148.47,589.61C150.19,631.28 176.86,671.41 215.46,687.8C246.8,701.7 283.6,699.97 315.02,687.18C367,666 404.14,622.2 446.12,586.87C467.84,610.06 488.74,633.87 509.76,657.67C468.72,693.71 433.11,736.13 388.06,767.48C338.11,801.48 275.2,813.11 216.14,801.14C216.65,800.82 217.16,800.5 217.67,800.2C133.76,783.14 67.47,710.24 48.5,628.12C43.83,597.24 40.61,565.36 47.03,534.5C62.87,454.09 127.65,387.69 205.42,364.35Z" style="fill:rgb(255,254,255);fill-rule:nonzero;"/>
    </g>
    <g transform="matrix(0.143681,0,0,0.143681,13.1056,150)">
        <path d="M458.34,732.95C477.57,710.61 499.25,689.73 523.92,673.55C524.34,673.79 540.12,689.51 540.12,689.51C522.96,707.62 508.57,723.12 495.16,749.32C479.33,780.26 466.29,813.32 463.1,848.21C460.61,892.43 487.39,939.95 531.06,953.19C566.49,966.15 609.71,955.14 633.1,925.1C653.36,898.7 655.24,857.23 632.25,831.88C613.34,809.1 576.2,804.92 552.86,823.16C529.95,841.05 526.15,880.48 549.08,899.9C556.44,907.48 567.27,908.96 577.09,911.12C552.54,921.09 525.47,901.09 517.54,877.7C500.17,832.1 538.82,776.81 587.63,777.47C637.79,771.62 684.15,814.12 689.8,862.86C698.78,912.95 670.06,964.55 625.84,987.86C578,1011.97 516.08,1008.11 473.93,973.92C459.65,962.32 447.86,947.72 437.75,932.42C401.69,870.19 412.48,787.3 458.34,732.95Z" style="fill:rgb(255,254,255);fill-rule:nonzero;"/>
    </g>
</svg>
